<?xml version="1.0" standalone="no"?>
<!DOCTYPE svg PUBLIC "-//W3C//DTD SVG 20010904//EN"
 "http://www.w3.org/TR/2001/REC-SVG-20010904/DTD/svg10.dtd">
<svg version="1.0" xmlns="http://www.w3.org/2000/svg"
 width="3400.000000pt" height="3400.000000pt" viewBox="0 0 3400.000000 3400.000000"
 preserveAspectRatio="xMidYMid meet">
<metadata>
Created by potrace 1.11, written by Peter Selinger 2001-2013
</metadata>
<g transform="translate(0.000000,3400.000000) scale(0.100000,-0.100000)"
fill="#000000" stroke="none">
<path d="M13500 31868 c-2131 -659 -3876 -1200 -3877 -1202 -1 -1 -227 -1140
-503 -2532 -275 -1391 -502 -2539 -505 -2551 -4 -19 -49 -53 -69 -53 -8 0 -65
191 -86 289 -11 49 -27 154 -35 235 -16 150 -88 605 -125 780 -193 938 -499
1643 -914 2109 -97 108 -277 259 -292 244 -3 -3 4 -24 16 -48 68 -133 183
-470 234 -690 145 -614 166 -1493 52 -2188 l-22 -136 -23 70 c-77 233 -225
424 -456 590 -112 80 -383 211 -401 193 -2 -3 14 -36 38 -74 76 -124 194 -366
256 -527 153 -390 215 -706 215 -1097 0 -284 -6 -315 -131 -621 -513 -1250
-907 -2734 -1127 -4246 -94 -647 -161 -1373 -197 -2128 -16 -349 -16 -1561 0
-1925 47 -1038 121 -1820 268 -2835 54 -369 107 -696 159 -977 14 -76 25 -148
25 -161 0 -13 -482 -2458 -1070 -5433 -589 -2975 -1073 -5424 -1076 -5441 l-6
-33 5816 0 5816 0 0 3168 1 3167 2402 2001 c2158 1798 2403 2000 2410 1980 4
-11 472 -1254 1040 -2761 l1032 -2740 4333 -3 c2382 -1 4332 2 4332 6 0 5
-2093 4119 -4651 9143 -4501 8841 -4651 9137 -4665 9218 -13 69 -13 86 -2 96
292 258 522 437 878 687 350 245 657 435 1045 648 82 45 151 82 152 84 1 1
-32 85 -73 186 -140 347 -310 890 -484 1541 -301 1133 -486 2393 -516 3515
l-7 261 -61 6 c-34 3 -384 25 -778 48 l-718 44 -1 160 c-1 186 -3 205 -30 262
-57 119 -256 216 -574 280 -138 27 -146 28 -495 28 -366 -1 -423 -5 -650 -51
-275 -56 -510 -155 -607 -256 -70 -72 -87 -207 -54 -428 l20 -135 -67 -63
c-88 -83 -349 -297 -363 -297 -5 0 -216 404 -467 897 -309 608 -462 898 -472
897 -8 -1 -1759 -541 -3890 -1201z"/>
</g>
</svg>
